<svg width="30" height="30" viewBox="0 0 30 30" fill="none" xmlns="http://www.w3.org/2000/svg">
<g opacity="0.8" clip-path="url(#clip0_1870_185)">
<path d="M3.5122 3.55055C3.45665 1.95328 4.70095 0.480469 6.38306 0.480469H23.619C25.3011 0.480469 26.5454 1.95328 26.4899 3.55055C26.4364 5.08477 26.5058 7.07227 27.0059 8.69273C27.5077 10.3184 28.3538 11.3456 29.7397 11.4778V12.9748C28.3538 13.1067 27.5077 14.1342 27.0059 15.7598C26.5058 17.3803 26.4364 19.3678 26.4899 20.902C26.5454 22.4993 25.3011 23.9719 23.619 23.9719H6.38306C4.70095 23.9719 3.45665 22.4991 3.5122 20.902C3.56563 19.3678 3.49626 17.3803 2.99587 15.7598C2.49431 14.1345 1.64587 13.107 0.26001 12.9748V11.4778C1.64587 11.3459 2.49431 10.3184 2.99587 8.69273C3.49626 7.07227 3.5654 5.08477 3.5122 3.55055Z" fill="black"/>
<g filter="url(#filter0_d_1870_185)">
<path d="M15.7289 18.5566C18.4521 18.5566 20.0929 17.2232 20.0929 15.0241C20.0929 13.3616 18.9222 12.1581 17.1836 11.9676V11.8982C18.461 11.6905 19.4632 10.5044 19.4632 9.17945C19.4632 7.29203 17.973 6.0625 15.7021 6.0625H10.5928V18.5566H15.7289ZM12.5798 7.64711H15.2233C16.66 7.64711 17.4764 8.28766 17.4764 9.44805C17.4764 10.686 16.5271 11.3788 14.8064 11.3788H12.5798V7.64711ZM12.5798 16.9722V12.8594H15.2055C17.0859 12.8594 18.0616 13.552 18.0616 14.9027C18.0616 16.2534 17.1126 16.9722 15.3208 16.9722H12.5798Z" fill="black"/>
<path d="M15.7289 18.5566C18.4521 18.5566 20.0929 17.2232 20.0929 15.0241C20.0929 13.3616 18.9222 12.1581 17.1836 11.9676V11.8982C18.461 11.6905 19.4632 10.5044 19.4632 9.17945C19.4632 7.29203 17.973 6.0625 15.7021 6.0625H10.5928V18.5566H15.7289ZM12.5798 7.64711H15.2233C16.66 7.64711 17.4764 8.28766 17.4764 9.44805C17.4764 10.686 16.5271 11.3788 14.8064 11.3788H12.5798V7.64711ZM12.5798 16.9722V12.8594H15.2055C17.0859 12.8594 18.0616 13.552 18.0616 14.9027C18.0616 16.2534 17.1126 16.9722 15.3208 16.9722H12.5798Z" fill="white"/>
</g>
</g>
<defs>
<filter id="filter0_d_1870_185" x="-7.8291" y="-7.75156" width="46.344" height="49.3379" filterUnits="userSpaceOnUse" color-interpolation-filters="sRGB">
<feFlood flood-opacity="0" result="BackgroundImageFix"/>
<feColorMatrix in="SourceAlpha" type="matrix" values="0 0 0 0 0 0 0 0 0 0 0 0 0 0 0 0 0 0 127 0" result="hardAlpha"/>
<feOffset dy="4.60781"/>
<feGaussianBlur stdDeviation="9.21094"/>
<feColorMatrix type="matrix" values="0 0 0 0 0 0 0 0 0 0 0 0 0 0 0 0 0 0 0.15 0"/>
<feBlend mode="normal" in2="BackgroundImageFix" result="effect1_dropShadow_1870_185"/>
<feBlend mode="normal" in="SourceGraphic" in2="effect1_dropShadow_1870_185" result="shape"/>
</filter>
<clipPath id="clip0_1870_185">
<rect width="30" height="30" fill="white"/>
</clipPath>
</defs>
</svg>
