<svg width="53" height="53" viewBox="0 0 53 53" fill="none" xmlns="http://www.w3.org/2000/svg">
<path d="M26.5373 0C23.0622 0 19.6211 0.684478 16.4105 2.01435C13.1999 3.34423 10.2826 5.29346 7.82534 7.75075C2.86262 12.7135 0.0745888 19.4444 0.0745888 26.4627C0.0514546 32.5733 2.16724 38.4994 6.05516 43.2136L0.762619 48.5061C0.395429 48.8783 0.146689 49.3508 0.0477873 49.8642C-0.0511148 50.3775 0.00425228 50.9087 0.206902 51.3906C0.426696 51.8667 0.783006 52.2668 1.2306 52.5401C1.6782 52.8134 2.1969 52.9475 2.72086 52.9254H26.5373C33.5556 52.9254 40.2865 50.1374 45.2493 45.1747C50.212 40.2119 53 33.4811 53 26.4627C53 19.4444 50.212 12.7135 45.2493 7.75075C40.2865 2.78803 33.5556 0 26.5373 0ZM26.5373 47.6329H9.09837L11.5594 45.1718C12.0523 44.676 12.3289 44.0053 12.3289 43.3062C12.3289 42.6071 12.0523 41.9364 11.5594 41.4406C8.09434 37.9794 5.93654 33.4238 5.45364 28.5501C4.97074 23.6763 6.19261 18.7859 8.91109 14.712C11.6296 10.6381 15.6764 7.63279 20.3623 6.20808C25.0481 4.78337 30.0829 5.0274 34.609 6.8986C39.1351 8.7698 42.8723 12.1524 45.1841 16.4701C47.4958 20.7878 48.239 25.7735 47.287 30.5777C46.3351 35.3819 43.7468 39.7074 39.9632 42.8173C36.1797 45.9272 31.4349 47.629 26.5373 47.6329Z" fill="url(#paint0_linear_1858_42)"/>
<defs>
<linearGradient id="paint0_linear_1858_42" x1="26.5" y1="0" x2="26.5" y2="52.9278" gradientUnits="userSpaceOnUse">
<stop stop-color="#D4F79A"/>
<stop offset="0.505208" stop-color="#A6F5A9"/>
<stop offset="0.9999" stop-color="#7BF1B8"/>
</linearGradient>
</defs>
</svg>
