<svg width="50" height="50" viewBox="0 0 50 50" fill="none" xmlns="http://www.w3.org/2000/svg">
<path d="M21.25 2.5H6.25C5.25544 2.5 4.30161 2.89509 3.59835 3.59835C2.89509 4.30161 2.5 5.25544 2.5 6.25V33.75C2.5 34.7446 2.89509 35.6984 3.59835 36.4016C4.30161 37.1049 5.25544 37.5 6.25 37.5H43.75C44.7446 37.5 45.6984 37.1049 46.4016 36.4016C47.1049 35.6984 47.5 34.7446 47.5 33.75V21.25M25 37.5V47.5" stroke="#6828BA" stroke-width="5" stroke-linecap="round" stroke-linejoin="round"/>
<path d="M35 2.5L30 7.5L35 12.5M42.5 2.5L47.5 7.5L42.5 12.5M12.5 47.5H37.5" stroke="#6828BA" stroke-width="5" stroke-linecap="round" stroke-linejoin="round"/>
</svg>
