<svg width="18" height="18" viewBox="0 0 18 18" fill="none" xmlns="http://www.w3.org/2000/svg">
<g clip-path="url(#clip0_1870_174)">
<path d="M8.98913 17.9543L1.66392 16.5123L0.0314941 3.52832H17.9687L16.3346 16.5103L8.98913 17.9543Z" fill="black" fill-opacity="0.8"/>
<path d="M14.9355 15.6835L16.3319 4.58984H9V16.8504L14.9355 15.6835Z" fill="black" fill-opacity="0.8"/>
<path d="M3.77357 9.40571L3.9748 10.9981H8.99991V9.40571H3.77357ZM3.36914 6.18262L3.57326 7.77504H8.99991V6.18262H3.36914ZM8.99991 13.5414L8.99006 13.5433L6.48922 13.0644L6.32933 11.7944H4.07514L4.38971 14.2947L8.98957 15.2002L8.99991 15.1982V13.5414Z" fill="#EBEBEB" fill-opacity="0.8"/>
<path d="M4.25293 0H6.97258V0.80656H5.39029V1.61312H6.97272V2.41963H4.25293V0ZM7.51658 0H10.2363V0.701352H8.65395V0.841612H10.2363V2.45473H7.51666V1.71823H9.09902V1.57797H7.51651L7.51658 0ZM10.7803 0H13.5V0.701352H11.9177V0.841612H13.5V2.45473H10.7803V1.71823H12.3627V1.57797H10.7804V0H10.7803Z" fill="black" fill-opacity="0.8"/>
<path d="M14.212 9.40571L14.6173 6.18262H8.99226V7.77504H12.1564L11.9521 9.40571H8.99226V10.9981H11.7574L11.4967 13.0634L8.99219 13.5428V15.1995L13.5957 14.2947L13.6295 14.0257L14.1572 9.83333L14.212 9.40571Z" fill="white" fill-opacity="0.8"/>
</g>
<defs>
<clipPath id="clip0_1870_174">
<rect width="18" height="18" fill="white"/>
</clipPath>
</defs>
</svg>
