<svg width="63" height="57" viewBox="0 0 63 57" fill="none" xmlns="http://www.w3.org/2000/svg">
<path d="M53.55 0H9.45C6.9437 0 4.54006 1.00089 2.76784 2.78249C0.995622 4.56408 0 6.98044 0 9.5V34.8333C0 37.3529 0.995622 39.7693 2.76784 41.5508C4.54006 43.3324 6.9437 44.3333 9.45 44.3333H28.35V50.6667H15.75C14.9146 50.6667 14.1134 51.0003 13.5226 51.5942C12.9319 52.188 12.6 52.9935 12.6 53.8333C12.6 54.6732 12.9319 55.4786 13.5226 56.0725C14.1134 56.6664 14.9146 57 15.75 57H47.25C48.0854 57 48.8867 56.6664 49.4774 56.0725C50.0681 55.4786 50.4 54.6732 50.4 53.8333C50.4 52.9935 50.0681 52.188 49.4774 51.5942C48.8867 51.0003 48.0854 50.6667 47.25 50.6667H34.65V44.3333H53.55C56.0563 44.3333 58.4599 43.3324 60.2322 41.5508C62.0044 39.7693 63 37.3529 63 34.8333V9.5C63 6.98044 62.0044 4.56408 60.2322 2.78249C58.4599 1.00089 56.0563 0 53.55 0ZM56.7 34.8333C56.7 35.6732 56.3681 36.4786 55.7774 37.0725C55.1866 37.6664 54.3854 38 53.55 38H9.45C8.61457 38 7.81335 37.6664 7.22261 37.0725C6.63188 36.4786 6.3 35.6732 6.3 34.8333V9.5C6.3 8.66015 6.63188 7.85469 7.22261 7.26083C7.81335 6.66696 8.61457 6.33333 9.45 6.33333H53.55C54.3854 6.33333 55.1866 6.66696 55.7774 7.26083C56.3681 7.85469 56.7 8.66015 56.7 9.5V34.8333Z" fill="url(#paint0_linear_1859_110)"/>
<defs>
<linearGradient id="paint0_linear_1859_110" x1="31.5" y1="0" x2="31.5" y2="57" gradientUnits="userSpaceOnUse">
<stop stop-color="#D4F79A"/>
<stop offset="0.421875" stop-color="#A6F5A9"/>
<stop offset="1" stop-color="#7BF1B8"/>
</linearGradient>
</defs>
</svg>
