<svg width="44" height="72" viewBox="0 0 44 72" fill="none" xmlns="http://www.w3.org/2000/svg">
<path d="M28.8 32.4H25.2V18H32.4C33.3548 18 34.2705 18.3793 34.9456 19.0544C35.6207 19.7295 36 20.6452 36 21.6C36 22.5548 36.3793 23.4705 37.0544 24.1456C37.7295 24.8207 38.6452 25.2 39.6 25.2C40.5548 25.2 41.4705 24.8207 42.1456 24.1456C42.8207 23.4705 43.2 22.5548 43.2 21.6C43.2 18.7357 42.0621 15.9886 40.0368 13.9632C38.0114 11.9379 35.2643 10.8 32.4 10.8H25.2V3.6C25.2 2.64522 24.8207 1.72955 24.1456 1.05442C23.4705 0.379284 22.5548 0 21.6 0C20.6452 0 19.7295 0.379284 19.0544 1.05442C18.3793 1.72955 18 2.64522 18 3.6V10.8H14.4C10.5809 10.8 6.91819 12.3171 4.21766 15.0177C1.51714 17.7182 0 21.3809 0 25.2C0 29.0191 1.51714 32.6818 4.21766 35.3823C6.91819 38.0829 10.5809 39.6 14.4 39.6H18V54H10.8C9.84522 54 8.92955 53.6207 8.25442 52.9456C7.57929 52.2705 7.2 51.3548 7.2 50.4C7.2 49.4452 6.82071 48.5295 6.14558 47.8544C5.47045 47.1793 4.55478 46.8 3.6 46.8C2.64522 46.8 1.72955 47.1793 1.05442 47.8544C0.379285 48.5295 0 49.4452 0 50.4C0 53.2643 1.13785 56.0114 3.16325 58.0368C5.18864 60.0621 7.93566 61.2 10.8 61.2H18V68.4C18 69.3548 18.3793 70.2705 19.0544 70.9456C19.7295 71.6207 20.6452 72 21.6 72C22.5548 72 23.4705 71.6207 24.1456 70.9456C24.8207 70.2705 25.2 69.3548 25.2 68.4V61.2H28.8C32.6191 61.2 36.2818 59.6829 38.9823 56.9823C41.6829 54.2818 43.2 50.6191 43.2 46.8C43.2 42.9809 41.6829 39.3182 38.9823 36.6177C36.2818 33.9171 32.6191 32.4 28.8 32.4ZM18 32.4H14.4C12.4904 32.4 10.6591 31.6414 9.30883 30.2912C7.95857 28.9409 7.2 27.1096 7.2 25.2C7.2 23.2904 7.95857 21.4591 9.30883 20.1088C10.6591 18.7586 12.4904 18 14.4 18H18V32.4ZM28.8 54H25.2V39.6H28.8C30.7096 39.6 32.5409 40.3586 33.8912 41.7088C35.2414 43.0591 36 44.8904 36 46.8C36 48.7096 35.2414 50.5409 33.8912 51.8912C32.5409 53.2414 30.7096 54 28.8 54Z" fill="url(#paint0_linear_1858_35)"/>
<defs>
<linearGradient id="paint0_linear_1858_35" x1="21.2211" y1="4.54737" x2="21.6" y2="72" gradientUnits="userSpaceOnUse">
<stop stop-color="#D4F79A"/>
<stop offset="0.5" stop-color="#A6F5A9"/>
<stop offset="1" stop-color="#7BF1B8"/>
</linearGradient>
</defs>
</svg>
