<svg width="60" height="60" viewBox="0 0 60 60" fill="none" xmlns="http://www.w3.org/2000/svg">
<g clip-path="url(#clip0_2083_2)">
<path d="M60.0002 30.1836C60.0002 13.5111 46.5677 -0.00390625 30.0002 -0.00390625C13.4252 -0.00015625 -0.00732422 13.5111 -0.00732422 30.1873C-0.00732422 45.2511 10.9652 57.7386 25.3052 60.0036V38.9098H17.6927V30.1873H25.3127V23.5311C25.3127 15.9673 29.7939 11.7898 36.6452 11.7898C39.9302 11.7898 43.3614 12.3786 43.3614 12.3786V19.8036H39.5777C35.8539 19.8036 34.6914 22.1323 34.6914 24.5211V30.1836H43.0089L41.6814 38.9061H34.6877V59.9998C49.0277 57.7348 60.0002 45.2473 60.0002 30.1836Z" fill="white"/>
</g>
<defs>
<clipPath id="clip0_2083_2">
<rect width="60" height="60" fill="white"/>
</clipPath>
</defs>
</svg>
