<svg width="63" height="59" viewBox="0 0 63 59" fill="none" xmlns="http://www.w3.org/2000/svg">
<path d="M57.2135 5.8217C53.8708 2.47807 49.4391 0.445184 44.7244 0.0927304C40.0096 -0.259723 35.3249 1.09167 31.5222 3.90115C27.5163 0.921578 22.5302 -0.429502 17.5681 0.119984C12.6059 0.66947 8.0362 3.0787 4.77924 6.86253C1.52228 10.6464 -0.180039 15.5237 0.0150981 20.5124C0.210235 25.5011 2.28833 30.2306 5.8309 33.7484L29.2868 57.2043C29.5795 57.4994 29.9277 57.7337 30.3114 57.8935C30.6951 58.0533 31.1066 58.1356 31.5222 58.1356C31.9379 58.1356 32.3494 58.0533 32.733 57.8935C33.1167 57.7337 33.4649 57.4994 33.7576 57.2043L57.2135 33.7484C59.048 31.9151 60.5032 29.7384 61.4961 27.3425C62.489 24.9466 63 22.3785 63 19.7851C63 17.1916 62.489 14.6235 61.4961 12.2276C60.5032 9.83174 59.048 7.65497 57.2135 5.8217V5.8217ZM52.7742 29.3091L31.5222 50.5296L10.2702 29.3091C8.39744 27.4285 7.12168 25.0368 6.60299 22.434C6.0843 19.8311 6.34577 17.1331 7.3546 14.6783C8.36343 12.2234 10.0747 10.1212 12.2737 8.63522C14.4727 7.14925 17.0616 6.34573 19.7155 6.32545C23.2611 6.33414 26.6582 7.74961 29.1609 10.261C29.4536 10.5561 29.8018 10.7903 30.1855 10.9502C30.5691 11.11 30.9806 11.1923 31.3963 11.1923C31.8119 11.1923 32.2234 11.11 32.6071 10.9502C32.9908 10.7903 33.339 10.5561 33.6317 10.261C36.2081 8.02839 39.5366 6.85799 42.9433 6.9867C46.3501 7.11541 49.5807 8.53361 51.9814 10.9543C54.382 13.3749 55.7734 16.6172 55.8738 20.0249C55.9742 23.4327 54.7763 26.7513 52.5223 29.3091H52.7742Z" fill="url(#paint0_linear_1989_90)"/>
<defs>
<linearGradient id="paint0_linear_1989_90" x1="31.5" y1="0" x2="31.5" y2="58.1356" gradientUnits="userSpaceOnUse">
<stop stop-color="#F5C05A"/>
<stop offset="0.5" stop-color="#EB88B1"/>
<stop offset="1" stop-color="#6F0079"/>
</linearGradient>
</defs>
</svg>
