<svg width="50" height="60" viewBox="0 0 50 60" fill="none" xmlns="http://www.w3.org/2000/svg">
<path d="M27.4508 5.45455C37.2021 5.45455 44.9532 13.9091 44.9532 24.5455C44.9532 32.1818 40.9527 38.7273 34.9518 41.7273V54.5455H17.4494V46.3636H14.949C12.1986 46.3636 9.94833 43.9091 9.94833 40.9091V32.7273H6.1978C5.19767 32.7273 4.44756 31.3636 5.19767 30.5455L9.94833 23.7273C10.4484 13.3636 17.9494 5.45455 27.4508 5.45455ZM27.4508 0C15.9492 0 6.44784 9.27273 5.19767 21.5455L1.19711 27.2727C-0.303104 29.4545 -0.303104 32.1818 0.697036 34.3636C1.69718 36.2727 3.19739 37.6364 4.94763 37.9091V40.9091C4.94763 46.0909 8.19808 50.1818 12.4487 51.5455V60H39.9525V45C46.2034 40.3636 49.9539 33 49.9539 24.5455C49.9539 10.9091 39.9525 0 27.4508 0ZM29.9511 35.4545H24.9504V32.7273H29.9511V35.4545ZM33.9517 23.1818C33.2016 24.2727 32.4515 25.3636 31.2013 26.1818V30H23.7003V26.1818C20.1998 24 18.9496 18.8182 20.9499 15C22.9501 11.1818 27.7008 9.81818 31.2013 12C34.7018 14.1818 35.952 19.3636 33.9517 23.1818Z" fill="#6828BA"/>
</svg>
