<svg width="20" height="20" viewBox="0 0 20 20" fill="none" xmlns="http://www.w3.org/2000/svg">
<path d="M3.33333 0C2.44928 0 1.60143 0.35119 0.976311 0.976311C0.35119 1.60143 0 2.44928 0 3.33333V16.6667C0 17.5507 0.35119 18.3986 0.976311 19.0237C1.60143 19.6488 2.44928 20 3.33333 20H16.6667C17.5507 20 18.3986 19.6488 19.0237 19.0237C19.6488 18.3986 20 17.5507 20 16.6667V3.33333C20 2.44928 19.6488 1.60143 19.0237 0.976311C18.3986 0.35119 17.5507 0 16.6667 0H3.33333ZM11.4822 14.5056C12.2822 15.15 13.08 15.4667 13.8778 15.4589C14.3667 15.4589 14.7422 15.37 15.0022 15.19C15.1236 15.1112 15.2224 15.0021 15.2888 14.8735C15.3553 14.745 15.3871 14.6013 15.3811 14.4567C15.3827 14.2989 15.3497 14.1428 15.2845 13.9992C15.2192 13.8556 15.1232 13.7281 15.0033 13.6256C14.7422 13.3978 14.2489 13.17 13.5233 12.9411C12.6522 12.6889 11.9789 12.3633 11.5067 11.9633C11.0422 11.5633 10.8067 11.0056 10.7978 10.2889C10.7978 9.61222 11.0911 9.04667 11.6778 8.59C12.2489 8.13444 12.9778 7.90556 13.8667 7.90556C15.1044 7.90556 16.0989 8.20667 16.8478 8.81L15.9922 10.1422C15.6842 9.90262 15.3308 9.72799 14.9533 9.62889C14.6141 9.51544 14.2598 9.45364 13.9022 9.44556C13.48 9.44556 13.1411 9.52333 12.8878 9.67778C12.6356 9.83333 12.51 10.0367 12.51 10.2889C12.51 10.5667 12.6644 10.8022 12.9733 10.9978C13.2844 11.1856 13.8133 11.3933 14.5622 11.6211C15.4667 11.89 16.1111 12.2489 16.4933 12.6967C16.8767 13.1444 17.0678 13.7156 17.0678 14.4078C17.0678 15.1167 16.7956 15.7278 16.2489 16.2411C15.7111 16.7467 14.9289 17.0111 13.9022 17.0356C12.5578 17.0356 11.4333 16.6322 10.5289 15.8256L11.4822 14.5056ZM5.33778 15.2144C5.59889 15.3778 5.91222 15.4589 6.27889 15.4589C6.66222 15.4589 6.97889 15.3489 7.23222 15.1289C7.48444 14.9011 7.61111 14.5056 7.61111 13.9433V8.05222H9.26111V14.2611C9.23667 15.2222 8.96 15.9156 8.43 16.3389C8.14081 16.5848 7.80369 16.7679 7.44 16.8767C7.10314 16.9793 6.75325 17.0328 6.40111 17.0356C5.79 17.0356 5.24778 16.93 4.77556 16.7178C4.27 16.49 3.84667 16.0867 3.50444 15.5078L4.65333 14.5667C4.86444 14.8522 5.09333 15.0678 5.33778 15.2144Z" fill="black" fill-opacity="0.8"/>
</svg>
