<svg width="60" height="60" viewBox="0 0 60 60" fill="none" xmlns="http://www.w3.org/2000/svg">
<path d="M50.625 46.875H39.375C37.8832 46.875 36.4524 47.4676 35.3975 48.5225C34.3426 49.5774 33.75 51.0082 33.75 52.5V56.25H37.5V52.5C37.5 52.0027 37.6975 51.5258 38.0492 51.1742C38.4008 50.8225 38.8777 50.625 39.375 50.625H50.625C51.1223 50.625 51.5992 50.8225 51.9508 51.1742C52.3025 51.5258 52.5 52.0027 52.5 52.5V56.25H56.25V52.5C56.25 51.0082 55.6574 49.5774 54.6025 48.5225C53.5476 47.4676 52.1168 46.875 50.625 46.875ZM37.5 37.5C37.5 38.9834 37.9399 40.4334 38.764 41.6668C39.5881 42.9001 40.7594 43.8614 42.1299 44.4291C43.5003 44.9968 45.0083 45.1453 46.4632 44.8559C47.918 44.5665 49.2544 43.8522 50.3033 42.8033C51.3522 41.7544 52.0665 40.418 52.3559 38.9632C52.6453 37.5083 52.4968 36.0003 51.9291 34.6299C51.3614 33.2594 50.4001 32.0881 49.1668 31.264C47.9334 30.4399 46.4834 30 45 30C43.0109 30 41.1032 30.7902 39.6967 32.1967C38.2902 33.6032 37.5 35.5109 37.5 37.5ZM48.75 37.5C48.75 38.2417 48.5301 38.9667 48.118 39.5834C47.706 40.2001 47.1203 40.6807 46.4351 40.9646C45.7498 41.2484 44.9958 41.3226 44.2684 41.1779C43.541 41.0333 42.8728 40.6761 42.3484 40.1517C41.8239 39.6272 41.4668 38.959 41.3221 38.2316C41.1774 37.5042 41.2516 36.7502 41.5354 36.0649C41.8193 35.3797 42.2999 34.794 42.9166 34.382C43.5333 33.9699 44.2583 33.75 45 33.75C45.9946 33.75 46.9484 34.1451 47.6516 34.8484C48.3549 35.5516 48.75 36.5054 48.75 37.5ZM11.25 39.375V37.5H7.5V39.375C7.5 42.856 8.88281 46.1944 11.3442 48.6558C13.8056 51.1172 17.144 52.5 20.625 52.5H26.25V48.75H20.625C18.1386 48.75 15.754 47.7623 13.9959 46.0041C12.2377 44.246 11.25 41.8614 11.25 39.375ZM35.625 18.75H48.75V22.5H35.625V18.75ZM35.625 11.25H54.375V15H35.625V11.25ZM35.625 3.75H54.375V7.5H35.625V3.75ZM20.625 20.625H9.375C7.88316 20.625 6.45242 21.2176 5.39752 22.2725C4.34263 23.3274 3.75 24.7582 3.75 26.25V30H7.5V26.25C7.5 25.7527 7.69754 25.2758 8.04918 24.9242C8.40081 24.5725 8.87772 24.375 9.375 24.375H20.625C21.1223 24.375 21.5992 24.5725 21.9508 24.9242C22.3025 25.2758 22.5 25.7527 22.5 26.25V30H26.25V26.25C26.25 24.7582 25.6574 23.3274 24.6025 22.2725C23.5476 21.2176 22.1168 20.625 20.625 20.625ZM15 18.75C16.4834 18.75 17.9334 18.3101 19.1668 17.486C20.4001 16.6619 21.3614 15.4906 21.9291 14.1201C22.4968 12.7497 22.6453 11.2417 22.3559 9.78683C22.0665 8.33197 21.3522 6.9956 20.3033 5.9467C19.2544 4.89781 17.918 4.1835 16.4632 3.89411C15.0083 3.60472 13.5003 3.75325 12.1299 4.32091C10.7594 4.88856 9.58809 5.84986 8.76398 7.08323C7.93987 8.3166 7.5 9.76664 7.5 11.25C7.5 13.2391 8.29018 15.1468 9.6967 16.5533C11.1032 17.9598 13.0109 18.75 15 18.75ZM15 7.5C15.7417 7.5 16.4667 7.71994 17.0834 8.13199C17.7001 8.54405 18.1807 9.12972 18.4645 9.81494C18.7484 10.5002 18.8226 11.2542 18.6779 11.9816C18.5333 12.709 18.1761 13.3772 17.6516 13.9017C17.1272 14.4261 16.459 14.7833 15.7316 14.9279C15.0042 15.0726 14.2502 14.9984 13.5649 14.7146C12.8797 14.4307 12.294 13.9501 11.882 13.3334C11.4699 12.7167 11.25 11.9917 11.25 11.25C11.25 10.2554 11.6451 9.30161 12.3483 8.59835C13.0516 7.89509 14.0054 7.5 15 7.5Z" fill="url(#paint0_linear_1868_137)"/>
<defs>
<linearGradient id="paint0_linear_1868_137" x1="29.5395" y1="7.06579" x2="29.7053" y2="56.251" gradientUnits="userSpaceOnUse">
<stop stop-color="#D4F79A"/>
<stop offset="0.5" stop-color="#A6F5A9"/>
<stop offset="1" stop-color="#7BF1B8"/>
</linearGradient>
</defs>
</svg>
