<svg width="60" height="60" viewBox="0 0 60 60" fill="none" xmlns="http://www.w3.org/2000/svg">
<path d="M30 5C16.2 5 5 16.2 5 30C5 43.8 16.2 55 30 55C43.8 55 55 43.8 55 30C55 16.2 43.8 5 30 5ZM30 50C18.975 50 10 41.025 10 30C10 18.975 18.975 10 30 10C41.025 10 50 18.975 50 30C50 41.025 41.025 50 30 50Z" fill="url(#paint0_linear_1868_134)"/>
<path d="M30 47.5C32.075 47.5 33.75 45.825 33.75 43.75H26.25C26.25 45.825 27.925 47.5 30 47.5ZM22.5 37.5H37.5V41.25H22.5V37.5ZM30 12.5C23.1 12.5 17.5 18.1 17.5 25C17.5 29.1 19.5 32.725 22.575 35H37.45C39.0138 33.843 40.2851 32.3359 41.162 30.5994C42.0389 28.863 42.4971 26.9453 42.5 25C42.5 18.1 36.9 12.5 30 12.5ZM36.075 31.25H23.925C23.0816 30.4417 22.41 29.4716 21.9504 28.3977C21.4907 27.3238 21.2525 26.1681 21.25 25C21.25 20.175 25.175 16.25 30 16.25C34.825 16.25 38.75 20.175 38.75 25C38.75 27.375 37.775 29.6 36.075 31.25Z" fill="url(#paint1_linear_1868_134)"/>
<defs>
<linearGradient id="paint0_linear_1868_134" x1="29.5614" y1="8.15789" x2="29.7193" y2="55.0009" gradientUnits="userSpaceOnUse">
<stop stop-color="#D4F79A"/>
<stop offset="0.5" stop-color="#A6F5A9"/>
<stop offset="1" stop-color="#7BF1B8"/>
</linearGradient>
<linearGradient id="paint1_linear_1868_134" x1="29.7807" y1="14.7105" x2="29.9354" y2="47.5003" gradientUnits="userSpaceOnUse">
<stop stop-color="#D4F79A"/>
<stop offset="0.5" stop-color="#A6F5A9"/>
<stop offset="1" stop-color="#7BF1B8"/>
</linearGradient>
</defs>
</svg>
