<svg width="34" height="28" viewBox="0 0 34 28" fill="none" xmlns="http://www.w3.org/2000/svg">
<path d="M31.45 0H2.55C1.13333 0 0 0.91046 0 1.93473V25.2653C0 26.2895 1.13333 27.2 2.55 27.2H31.45C32.8667 27.2 34 26.2895 34 25.2653V1.93473C34 0.91046 32.8667 0 31.45 0ZM10.0583 23.2167H5.1V10.2427H10.0583V23.2167ZM7.65 8.42176C6.09167 8.42176 4.675 7.39749 4.675 6.0318C4.675 4.66611 5.95 3.64184 7.65 3.64184C9.20833 3.64184 10.625 4.66611 10.625 6.0318C10.625 7.39749 9.20833 8.42176 7.65 8.42176ZM29.0417 23.1029H24.0833V16.7297C24.0833 15.2502 24.0833 13.2017 21.3917 13.2017C18.7 13.2017 18.4167 14.9088 18.4167 16.5021V22.9891H13.4583V10.2427H18.1333V11.9498H18.275C18.9833 10.9255 20.6833 9.78745 23.0917 9.78745C28.1917 9.78745 29.1833 12.5188 29.1833 16.0469V23.1029H29.0417Z" fill="white"/>
</svg>
