<svg width="34" height="28" viewBox="0 0 34 28" fill="none" xmlns="http://www.w3.org/2000/svg">
<path d="M28.9 0H5.1C3.7474 0 2.45019 0.53732 1.49376 1.49376C0.53732 2.45019 0 3.7474 0 5.1V22.1C0 23.4526 0.53732 24.7498 1.49376 25.7062C2.45019 26.6627 3.7474 27.2 5.1 27.2H28.9C30.2526 27.2 31.5498 26.6627 32.5062 25.7062C33.4627 24.7498 34 23.4526 34 22.1V5.1C34 3.7474 33.4627 2.45019 32.5062 1.49376C31.5498 0.53732 30.2526 0 28.9 0ZM28.203 3.4L18.207 13.396C18.049 13.5553 17.8609 13.6818 17.6538 13.7681C17.4466 13.8544 17.2244 13.8989 17 13.8989C16.7756 13.8989 16.5534 13.8544 16.3462 13.7681C16.1391 13.6818 15.951 13.5553 15.793 13.396L5.797 3.4H28.203ZM30.6 22.1C30.6 22.5509 30.4209 22.9833 30.1021 23.3021C29.7833 23.6209 29.3509 23.8 28.9 23.8H5.1C4.64913 23.8 4.21673 23.6209 3.89792 23.3021C3.57911 22.9833 3.4 22.5509 3.4 22.1V5.797L13.396 15.793C14.3523 16.7481 15.6485 17.2845 17 17.2845C18.3515 17.2845 19.6477 16.7481 20.604 15.793L30.6 5.797V22.1Z" fill="white"/>
</svg>
