<svg width="60" height="50" viewBox="0 0 60 50" fill="none" xmlns="http://www.w3.org/2000/svg">
<path d="M29.6531 50C29.4562 50 29.2594 49.9235 29.0813 49.7959L27.2812 48.3418C27.0094 48.1377 27.1406 48.0612 27.2344 48.0229C27.5906 47.8571 27.6656 47.8188 28.05 47.5127C28.0875 47.4871 28.1438 47.4999 28.1813 47.5254L29.5687 48.6479C29.6156 48.6862 29.6906 48.6862 29.7375 48.6479L35.1562 44.3875C35.2031 44.3493 35.2406 44.2727 35.2406 44.1835V35.6755C35.2406 35.5862 35.2125 35.5097 35.1562 35.4714L29.7375 31.2238C29.6906 31.1855 29.625 31.1855 29.5687 31.2238L24.15 35.4714C24.0938 35.5097 24.0656 35.599 24.0656 35.6755V44.1835C24.0656 44.26 24.1031 44.3365 24.15 44.3748L25.6312 45.5355C26.4375 46.084 26.9344 45.4335 26.9344 44.7957V36.3898C26.9344 36.275 27 36.173 27.0938 36.173H27.7781C27.8625 36.173 27.9375 36.2622 27.9375 36.3898V44.7957C27.9375 46.2626 27.3562 47.0917 26.3344 47.0917C26.025 47.0917 25.7719 47.0917 25.0875 46.6325L23.6625 45.5228C23.3156 45.2422 23.0906 44.7319 23.0906 44.1835V35.6755C23.0906 35.127 23.3062 34.604 23.6625 34.3362L29.0813 30.0758C29.4281 29.8079 29.8781 29.8079 30.2156 30.0758L35.6344 34.3362C35.9813 34.6168 36.2063 35.127 36.2063 35.6755V44.1835C36.2063 44.7319 35.9906 45.2549 35.6344 45.5228L30.2156 49.7832C30.0562 49.9235 29.8594 50 29.6531 50ZM34.0312 41.6068C34.0312 40.0124 33.2437 39.5915 31.575 39.2853C29.8875 38.9792 29.7188 38.8261 29.7188 38.2904C29.7188 37.8439 29.8594 37.2572 31.1062 37.2572C32.2219 37.2572 32.6344 37.5888 32.8031 38.6093C32.8219 38.7113 32.8781 38.7751 32.9531 38.7751H33.6562C33.7031 38.7751 33.7406 38.7496 33.7688 38.7113C33.7969 38.6603 33.8156 38.6093 33.8063 38.5455C33.6938 36.7852 32.8406 35.9689 31.1062 35.9689C29.5594 35.9689 28.6406 36.8618 28.6406 38.3414C28.6406 39.9614 29.5594 40.3951 31.0406 40.5991C32.8125 40.8415 32.9531 41.1859 32.9531 41.6579C32.9531 42.487 32.4656 42.8314 31.3219 42.8314C29.8875 42.8314 29.5687 42.3467 29.4656 41.3772C29.4562 41.2752 29.3906 41.1987 29.3063 41.1987H28.6031C28.5188 41.1987 28.4437 41.2879 28.4437 41.4155C28.4437 42.6528 28.9406 44.1324 31.3125 44.1324C33.0469 44.1324 34.0312 43.214 34.0312 41.6068ZM39.1406 35.2163C39.1406 35.9944 38.6719 36.6322 38.1 36.6322C37.5281 36.6322 37.0594 35.9944 37.0594 35.2163C37.0594 34.4127 37.5469 33.8004 38.1 33.8004C38.6625 33.7877 39.1406 34.4127 39.1406 35.2163ZM38.9719 35.2163C38.9719 34.553 38.5781 34.03 38.0906 34.03C37.6125 34.03 37.2188 34.553 37.2188 35.2163C37.2188 35.8796 37.6125 36.4153 38.0906 36.4153C38.5781 36.4026 38.9719 35.8668 38.9719 35.2163ZM38.55 36.0071H38.3063C38.2969 35.9306 38.2594 35.5224 38.2594 35.5097C38.2406 35.4204 38.2219 35.3694 38.1375 35.3694H37.9313V36.0071H37.7063V34.4127H38.1094C38.25 34.4127 38.5219 34.4127 38.5219 34.8336C38.5219 35.127 38.3812 35.1908 38.2969 35.229C38.4563 35.2418 38.4656 35.3821 38.4938 35.5862C38.5031 35.7138 38.5219 35.9306 38.55 36.0071ZM38.2875 34.8846C38.2875 34.6678 38.175 34.6678 38.1188 34.6678H37.9313V35.1142H38.1094C38.2594 35.1142 38.2875 34.9739 38.2875 34.8846ZM12.8719 16.7079C12.8719 16.3635 12.7406 16.0574 12.525 15.8916L6.77813 11.3889C6.68438 11.3123 6.57188 11.2741 6.45938 11.2613H6.40313C6.29063 11.2613 6.1875 11.3123 6.08438 11.3889L0.346875 15.8916C0.13125 16.0574 0 16.3763 0 16.7079L0.009375 28.8257C0.009375 28.9916 0.075 29.1446 0.178125 29.2339C0.28125 29.3232 0.4125 29.3232 0.525 29.2339L3.9375 26.568C4.15312 26.3894 4.28438 26.0833 4.28438 25.7516V20.0882C4.28438 19.7565 4.41563 19.4376 4.63125 19.2718L6.08438 18.1366C6.19688 18.0473 6.30937 18.009 6.43125 18.009C6.55312 18.009 6.675 18.0473 6.77813 18.1366L8.23125 19.2718C8.44688 19.4376 8.57812 19.7565 8.57812 20.0882V25.7516C8.57812 26.0833 8.70937 26.4022 8.925 26.568L12.3375 29.2339C12.4406 29.3232 12.5813 29.3232 12.6844 29.2339C12.7875 29.1574 12.8531 28.9916 12.8531 28.8257L12.8719 16.7079ZM44.2969 3.48042V25.9813C44.2969 26.3129 44.1656 26.6318 43.95 26.7976L38.2031 31.3131C37.9875 31.4789 37.725 31.4789 37.5094 31.3131L31.7625 26.7976C31.5469 26.6318 31.4156 26.3129 31.4156 25.9813V16.9503C31.4156 16.6187 31.5469 16.2998 31.7625 16.1339L37.5094 11.6185C37.725 11.4527 37.9875 11.4527 38.2031 11.6185L39.6375 12.741C39.7969 12.8685 40.0031 12.7027 40.0031 12.4603V0.470104C40.0031 0.112948 40.2844 -0.116653 40.5188 0.0619254L43.9406 2.66406C44.1563 2.81713 44.2969 3.13602 44.2969 3.48042ZM39.9844 19.9224C39.9844 19.8331 39.9469 19.7565 39.9 19.7183L37.9313 18.1621C37.875 18.1238 37.8094 18.1238 37.7531 18.1621L35.7844 19.7183C35.7281 19.7565 35.7 19.8331 35.7 19.9224V23.022C35.7 23.1112 35.7375 23.1878 35.7844 23.226L37.7531 24.7695C37.8094 24.8077 37.875 24.8077 37.9219 24.7695L39.8906 23.226C39.9469 23.1878 39.975 23.1112 39.975 23.022V19.9224H39.9844ZM59.6531 19.8331C59.8687 19.6672 60 19.3484 60 19.0167V16.8355C60 16.5039 59.8687 16.185 59.6531 16.0191L53.9438 11.5037C53.7281 11.3379 53.4656 11.3379 53.25 11.5037L47.5031 16.0191C47.2875 16.185 47.1562 16.5039 47.1562 16.8355V25.8664C47.1562 26.2108 47.2875 26.517 47.5031 26.6828L53.2125 31.109C53.4187 31.2748 53.6813 31.2748 53.8969 31.109L57.3469 28.4941C57.5813 28.3155 57.5813 27.8563 57.3469 27.6777L51.5625 23.1623C51.45 23.073 51.3844 22.9199 51.3844 22.7541V19.9224C51.3844 19.7565 51.45 19.6035 51.5625 19.5142L53.3625 18.0983C53.4656 18.009 53.6063 18.009 53.7094 18.0983L55.5094 19.5142C55.6125 19.6035 55.6875 19.7565 55.6875 19.9224V22.1418C55.6875 22.499 55.9781 22.7286 56.2125 22.55L59.6531 19.8331ZM52.4062 20.2795C52.3687 20.3178 52.3406 20.3688 52.3406 20.4326V22.1673C52.3406 22.2311 52.3687 22.2949 52.4062 22.3204L53.5125 23.1878C53.55 23.226 53.6063 23.226 53.6438 23.1878L54.75 22.3204C54.7875 22.2821 54.8156 22.2311 54.8156 22.1673V20.4326C54.8156 20.3688 54.7875 20.305 54.75 20.2795L53.6438 19.4121C53.6063 19.3739 53.55 19.3739 53.5125 19.4121L52.4062 20.2795ZM28.575 25.8282V16.8483C28.575 16.5166 28.425 16.1977 28.2094 16.0319L22.4813 11.5419C22.2844 11.3889 22.0125 11.3634 21.7875 11.5419L16.0594 16.0319C15.8438 16.1977 15.6937 16.5039 15.6937 16.8483V25.8282C15.6937 26.1853 15.8719 26.4915 16.0687 26.6445L21.8063 31.1345C22.0313 31.3131 22.2937 31.3003 22.5 31.1345L28.2188 26.6445C28.3875 26.517 28.5094 26.3001 28.5563 26.045C28.5656 25.9813 28.575 25.9047 28.575 25.8282ZM21.6094 9.89647L21.5344 9.96025H21.6375L21.6094 9.89647ZM28.7531 26.5042L28.7156 26.4149V26.5297L28.7531 26.5042Z" fill="black" fill-opacity="0.8"/>
</svg>
