<svg width="60" height="60" viewBox="0 0 60 60" fill="none" xmlns="http://www.w3.org/2000/svg">
<path d="M25.3127 34.1248V20.4749C25.3127 18.598 23.6855 17.0624 21.6966 17.0624H7.23221V10.2375H21.6966C23.6855 10.2375 25.3127 8.70183 25.3127 6.82497C25.3127 4.9481 23.6855 3.41248 21.6966 3.41248H16.2725C16.2725 1.53562 14.6452 0 12.6564 0C10.6675 0 9.04026 1.53562 9.04026 3.41248H3.6161C1.62725 3.41248 0 4.9481 0 6.82497V20.4749C0 22.3518 1.62725 23.8874 3.6161 23.8874H18.0805V30.7124H3.6161C1.62725 30.7124 0 32.248 0 34.1248C0 36.0017 1.62725 37.5373 3.6161 37.5373H9.04026C9.04026 39.4142 10.6675 40.9498 12.6564 40.9498C14.6452 40.9498 16.2725 39.4142 16.2725 37.5373H21.6966C23.6855 37.5373 25.3127 36.0017 25.3127 34.1248ZM53.8076 34.8756L35.9079 51.7674L28.2418 44.5329C27.5656 43.8949 26.6486 43.5364 25.6924 43.5364C24.7362 43.5364 23.8192 43.8949 23.1431 44.5329C22.4669 45.171 22.0871 46.0364 22.0871 46.9387C22.0871 47.8411 22.4669 48.7065 23.1431 49.3445L33.3766 59.0019C34.7869 60.3327 37.0651 60.3327 38.4753 59.0019L58.9425 39.6872C59.2777 39.3715 59.5437 38.9965 59.7251 38.5837C59.9066 38.1709 60 37.7283 60 37.2814C60 36.8345 59.9066 36.3919 59.7251 35.9791C59.5437 35.5663 59.2777 35.1913 58.9425 34.8756C57.496 33.5447 55.2179 33.5447 53.8076 34.8756Z" fill="#7BF1B8"/>
</svg>
