<svg width="50" height="50" viewBox="0 0 50 50" fill="none" xmlns="http://www.w3.org/2000/svg">
<path d="M25 32.0528C28.5855 34.9117 32.1218 36.603 34.9705 36.603C35.9037 36.603 36.7878 36.4419 37.5246 36.0795C40.0786 34.8715 41.0118 31.8514 40.1277 27.5428C39.9804 26.7777 39.7839 26.0127 39.5383 25.2073C40.5206 24.9657 41.4047 24.7241 42.2888 24.4825C47.2495 22.9121 50 20.7377 50 18.3619C50 15.9458 47.2495 13.7714 42.2888 12.2413C41.4047 11.9594 40.5206 11.7178 39.5383 11.5164C39.7839 10.7111 39.9804 9.94602 40.1277 9.18094C40.9627 4.79181 40.0295 1.73149 37.4754 0.523475C36.7387 0.161069 35.8546 0 34.9214 0C32.1218 0 28.5363 1.69123 24.9509 4.5502C21.4145 1.69123 17.8782 0 15.0295 0C14.0963 0 13.2122 0.161069 12.4754 0.523475C9.92141 1.73149 8.98821 4.75154 9.8723 9.06014C10.0196 9.82522 10.2161 10.5903 10.4617 11.3956C9.47937 11.6372 8.59528 11.8789 7.7112 12.1205C2.75049 13.6909 0 15.8653 0 18.2411C0 20.6571 2.75049 22.8316 7.7112 24.3617C8.59528 24.6436 9.47937 24.8852 10.4617 25.0865C10.2161 25.8919 10.0196 26.6569 9.8723 27.422C9.03733 31.7306 9.97053 34.7909 12.4754 35.9587C13.2122 36.3211 14.0963 36.4822 15.0295 36.4822C17.8782 36.5627 21.4145 34.8715 25 32.0528ZM22.2495 26.6167C23.1336 26.6569 24.0668 26.6569 25 26.6569C25.9332 26.6569 26.8664 26.6569 27.7505 26.6167C26.8664 27.5831 25.9332 28.469 25 29.3146C24.0668 28.469 23.1336 27.5831 22.2495 26.6167ZM16.1591 22.4691C16.6503 23.1537 17.0923 23.798 17.6326 24.4422C16.11 24.2812 14.6857 24.0798 13.3104 23.8382C13.7525 22.751 14.2436 21.6235 14.833 20.4961C15.2259 21.1403 15.668 21.8249 16.1591 22.4691ZM13.3104 12.7647C14.6857 12.5231 16.11 12.3218 17.6326 12.1607C17.1415 12.805 16.6503 13.4493 16.1591 14.1338C15.668 14.8184 15.2259 15.4626 14.833 16.1472C14.1945 14.9794 13.7033 13.8519 13.3104 12.7647ZM16.0118 18.2813C16.6503 17.1941 17.3379 16.1069 18.1238 15.0197C18.8605 13.9728 19.6955 12.9258 20.5305 11.8789C22.0039 11.7983 23.4774 11.758 25 11.758C26.5717 11.758 28.0452 11.7983 29.4695 11.8789C30.3536 12.9258 31.1395 13.9728 31.8762 15.0197C32.6621 16.1069 33.3497 17.1941 33.9882 18.2813C33.3497 19.3686 32.6621 20.4558 31.8762 21.543C31.1395 22.5899 30.3045 23.6369 29.4695 24.6838C27.9961 24.7644 26.5226 24.8047 25 24.8047C23.4283 24.8047 21.9548 24.7644 20.5305 24.6838C19.6464 23.6369 18.8605 22.5899 18.1238 21.543C17.3379 20.4558 16.6503 19.3686 16.0118 18.2813ZM35.2161 16.1069L33.89 14.0936C33.3988 13.409 32.9568 12.7647 32.4165 12.1205C33.9391 12.2815 35.3635 12.4829 36.7387 12.7245C36.2967 13.8519 35.8055 14.9794 35.2161 16.1069ZM35.2161 20.4558C35.8055 21.5833 36.2967 22.7108 36.7387 23.798C35.3635 24.0396 33.9391 24.2409 32.4165 24.402C32.9077 23.7577 33.3988 23.1134 33.89 22.4289C34.332 21.8249 34.7741 21.1403 35.2161 20.4558ZM36.3458 34.4285C35.9528 34.6299 35.4617 34.7104 34.9214 34.7104C32.5147 34.7104 29.5187 33.0997 26.5717 30.6837C27.9961 29.4354 29.3713 28.026 30.7466 26.4556C33.055 26.2945 35.2652 26.0127 37.3281 25.61C37.5737 26.3348 37.721 27.0596 37.8684 27.7844C38.556 31.2071 38.0157 33.6635 36.3458 34.4285ZM38.8998 13.2077C44.4008 14.4962 47.6915 16.4693 47.6915 18.2813C47.6915 19.8518 45.4322 21.4222 41.4538 22.6705C40.668 22.9121 39.7839 23.1537 38.8998 23.355C38.2613 21.7041 37.4754 20.0128 36.4931 18.2813C37.4754 16.5499 38.3104 14.8586 38.8998 13.2077ZM34.9705 1.8523C35.5108 1.8523 35.9528 1.93283 36.3949 2.13417C38.0157 2.89924 38.6051 5.31528 37.9175 8.77827C37.7701 9.46281 37.5737 10.1876 37.3772 10.9527C35.3143 10.5903 33.1041 10.3084 30.7957 10.1071C29.4695 8.53667 28.0452 7.12731 26.6208 5.87902C29.5678 3.50325 32.5639 1.8523 34.9705 1.8523ZM27.7505 9.94602C26.8664 9.90575 25.9332 9.90575 25 9.90575C24.0668 9.90575 23.1336 9.90575 22.2495 9.94602C23.1336 8.9796 24.0668 8.09372 25 7.24811C25.9332 8.09372 26.8664 9.01987 27.7505 9.94602ZM13.6542 2.13417C14.0472 1.93283 14.5383 1.8523 15.0786 1.8523C17.4853 1.8523 20.4813 3.46299 23.4283 5.87902C22.0039 7.12731 20.6287 8.53667 19.2534 10.1071C16.945 10.2682 14.7348 10.55 12.6719 10.9527C12.4263 10.2279 12.279 9.50308 12.1316 8.77827C11.444 5.35555 11.9843 2.93951 13.6542 2.13417ZM11.1002 23.355C5.59921 22.0665 2.30845 20.0934 2.30845 18.2813C2.30845 16.7109 4.56778 15.1405 8.54617 13.8922C9.33202 13.6506 10.2161 13.409 11.1002 13.2077C11.7387 14.8586 12.5246 16.5499 13.5069 18.2813C12.5246 20.0128 11.6896 21.7443 11.1002 23.355ZM12.1316 27.7844C12.279 27.0999 12.4754 26.3751 12.6719 25.61C14.7348 25.9724 16.945 26.2543 19.2534 26.4556C20.5796 28.026 22.0039 29.4354 23.4283 30.6837C20.4813 33.0594 17.4853 34.7104 15.0786 34.7104C14.5383 34.7104 14.0963 34.6299 13.6542 34.4285C11.9843 33.6635 11.444 31.2071 12.1316 27.7844ZM10.0688 44.3746C11.1493 43.2873 11.1984 42.0793 10.609 40.8713C10.0196 39.6633 8.79175 39.0995 7.26915 39.0593C5.45187 39.019 3.58546 39.0593 1.76817 39.0593H1.42436V49.4885H2.89784V45.5423H5.20629C5.50098 45.5423 5.74656 45.6228 5.89391 45.8242L8.84086 49.569C8.88998 49.6496 9.03733 49.7704 9.13556 49.7704H11.0511C9.8723 48.2805 8.74263 46.8711 7.56385 45.4215C8.59528 45.3007 9.47937 45.0188 10.0688 44.3746ZM2.89784 44.294V40.3076H3.43811C4.56778 40.3076 5.74656 40.2673 6.87623 40.3478C8.20236 40.3881 9.13556 41.2337 9.13556 42.3209C9.13556 43.4081 8.05501 44.2538 6.72888 44.294C5.5501 44.3343 4.37132 44.294 2.89784 44.294ZM21.9057 44.8175C21.1198 41.9988 17.9764 41.274 15.5697 42.1599C13.7033 42.8444 12.8684 44.1732 12.8193 45.8242C12.7701 47.0725 13.2122 48.1999 14.391 49.0456C15.7171 50.012 17.3379 50.1328 19.0079 49.8912C19.9411 49.7301 20.776 49.3677 21.4145 48.804C21.169 48.5221 20.9234 48.2402 20.6778 47.9986C19.3026 48.965 17.78 49.2872 16.11 48.6429C15.0295 48.1999 14.4892 47.1127 14.391 46.3074H22.0039V45.7839C22.053 45.4215 22.0039 45.0994 21.9057 44.8175ZM14.4892 45.4618C14.3418 44.2538 15.8153 42.9652 17.4361 42.9652C19.3026 42.9249 20.4813 43.8511 20.5305 45.4618H14.4892ZM29.5678 41.9585C28.831 41.8377 28.0452 41.7974 27.3084 41.8377C26.1297 41.9182 25.0982 42.3612 24.2633 43.086C24.5088 43.3679 24.7053 43.6497 25 43.9719C25.0982 43.8913 25.1965 43.8108 25.2947 43.7705C26.0805 43.1665 27.0138 42.8444 28.1434 42.9249C29.0275 42.9652 29.8625 43.2068 30.1081 43.9316C30.3045 44.4954 30.2554 45.0994 30.3045 45.7034C30.1572 45.7034 30.1081 45.6631 30.0589 45.6228C28.8802 44.8175 27.554 44.6564 26.1297 44.9383C24.8035 45.2202 23.9686 46.0658 23.8703 47.153C23.7721 48.4013 24.4597 49.3274 25.7859 49.7704C26.6208 50.0522 27.554 50.0522 28.4381 49.8912C29.1257 49.7704 29.4204 49.4482 30.4027 49.0053V49.5288H31.778C31.778 47.9181 31.8271 45.945 31.778 44.0927C31.778 42.9249 30.943 42.2001 29.5678 41.9585ZM30.2554 47.0322C30.2063 47.153 30.2554 47.2738 30.2554 47.3946C30.2554 48.2402 30.0098 48.5221 29.0275 48.8442C28.3399 49.0456 27.6031 49.1261 26.8664 48.9248C26.0314 48.7234 25.442 48.1194 25.442 47.4349C25.3929 46.7503 25.9332 46.0658 26.7682 45.8644C27.8978 45.5423 28.9293 45.7436 29.8625 46.3074C30.1572 46.5087 30.3536 46.7101 30.2554 47.0322ZM37.9175 43.0457C39.1945 42.7236 40.3733 42.9249 41.2574 43.8108L41.4047 43.8913C41.7485 43.6497 42.0432 43.4081 42.4361 43.1263C42.2888 43.0055 42.2397 42.9249 42.1415 42.8041C40.7171 41.5558 37.9175 41.3948 36.1984 42.4015C33.7917 43.8511 33.8409 46.6698 35.0196 48.1597C36.1493 49.569 37.7701 50.0522 39.6857 49.8509C40.8153 49.7301 41.7485 49.2872 42.4853 48.5221C42.1415 48.2805 41.7976 48.0389 41.4538 47.757C41.3556 47.8375 41.3065 47.8778 41.2574 47.9583C39.9312 49.1664 37.721 49.0456 36.5422 47.757C35.8546 46.9919 35.7073 46.106 35.9037 45.2202C36.002 44.2135 36.6405 43.4081 37.9175 43.0457ZM48.1336 48.5221C48.0354 48.5624 47.9862 48.6026 47.9862 48.6026C47.5933 48.8442 47.2004 48.8845 46.7583 48.7637C46.3163 48.6026 46.2672 48.2805 46.2181 47.9583V43.3679C46.2181 43.2873 46.2181 43.4484 46.2672 43.0457H48.1336V41.8377H46.169V39.8243H44.6955V41.9988H43.4185C43.3202 41.9988 43.1729 42.0793 43.1729 42.1599C43.1238 42.4417 43.1729 42.6431 43.1729 43.0457H44.7446V48.1999C44.7446 48.8442 44.9411 49.408 45.6287 49.7301C46.3654 50.0925 47.7898 50.012 48.4283 49.569C48.5265 49.5288 48.5756 49.3677 48.5756 49.3274C48.4283 49.0858 48.2809 48.804 48.1336 48.5221Z" fill="black" fill-opacity="0.8"/>
</svg>
