<svg width="30" height="30" viewBox="0 0 30 30" fill="none" xmlns="http://www.w3.org/2000/svg">
<path d="M15.2186 17.9137C14.6051 18.1508 13.933 18.4596 12.5875 19.0806C12.0774 19.3219 11.5443 19.5632 11.0482 19.7906C11.0137 19.7616 10.978 19.7252 10.9436 19.6951C8.28193 17.3035 3.35908 15.6143 3.56823 12.4023C3.64603 11.2322 4.12429 8.16061 13.0224 4.43052C20.3455 1.3954 26.1725 2.23623 27.1788 4.10127C28.625 6.75995 24.0555 11.7073 16.4926 12.4248C15.6556 12.5676 14.7911 12.5503 13.9631 12.3743C13.1351 12.1984 12.3646 11.8681 11.7088 11.4081C11.3083 11.0424 11.2484 11.0209 11.1005 11.0938C10.8569 11.2011 11.0137 11.5325 11.1005 11.7223C11.3889 12.1615 11.7792 12.5477 12.2482 12.8579C12.7172 13.1681 13.2554 13.3961 13.831 13.5284C16.8071 14.0693 19.9102 13.8109 22.7023 12.7894C27.2859 11.2976 30.8645 7.15033 29.8162 3.67335C28.764 0.148109 21.8057 -1.01446 15.2224 0.952469C11.0995 2.12082 7.29038 3.96004 4.01205 6.36528C0.38496 9.21807 -0.188947 11.6976 0.0457178 12.7358C0.889999 16.4219 6.93261 18.8211 9.35577 20.5982C9.22824 20.6571 9.12111 20.7054 9.02545 20.7515C7.81642 21.2567 3.20731 23.2826 2.05822 25.4254C0.753537 27.8535 2.26738 29.5941 3.26725 29.8279C4.77406 30.1315 6.35597 30.0317 7.79208 29.5425C9.22819 29.0534 10.4468 28.1993 11.2777 27.0995C11.9833 26.1876 12.4166 25.1458 12.5408 24.0628C12.6649 22.9798 12.4762 21.8877 11.9906 20.8792C12.2771 20.687 12.5826 20.5159 12.9038 20.3676C13.5211 20.0609 14.109 19.7584 14.6306 19.5246C16.4166 18.8211 18.3656 18.4589 20.3378 18.4639C24.4776 18.8736 25.2951 21.0454 25.1382 21.9602C25.0648 22.2848 24.9096 22.5924 24.683 22.8623C24.4565 23.1322 24.1637 23.3582 23.8246 23.525C23.5377 23.6783 23.442 23.7298 23.4675 23.8392C23.5019 24.0001 23.641 23.9926 23.8846 23.9636C24.5065 23.7983 25.0545 23.4786 25.4565 23.0466C25.8584 22.6146 26.0956 22.0905 26.1368 21.543C26.2644 19.3981 23.8323 17.045 19.5267 17.0665C18.2375 17.0683 16.9611 17.2822 15.7695 17.696C15.5782 17.7625 15.3924 17.834 15.2122 17.9105L15.2186 17.9137ZM9.06499 26.3209C7.69016 27.5789 5.77714 28.054 4.95071 27.6519C4.05797 27.2229 4.41124 25.3621 6.09853 24.0312C7.09784 23.274 8.17795 22.5958 9.32516 22.0053C9.52539 21.898 9.82127 21.7564 10.1771 21.5763L10.2727 21.5323L10.4819 21.425C10.7828 22.2735 10.8102 23.1739 10.5612 24.0342C10.3123 24.8945 9.7959 25.6837 9.06499 26.3209Z" fill="black" fill-opacity="0.8"/>
</svg>
