<svg width="60" height="60" viewBox="0 0 60 60" fill="none" xmlns="http://www.w3.org/2000/svg">
<path d="M39.4091 40.1667L42.4091 36.6667L36.6818 29.6667C37.1818 28.7222 37.5573 27.7222 37.8082 26.6667C38.0591 25.6111 38.1836 24.5 38.1818 23.3333C38.1818 20.0556 37.2382 17.2911 35.3509 15.04C33.4636 12.7889 31.2255 11.6644 28.6364 11.6667C26.0455 11.6667 23.8064 12.7911 21.9191 15.04C20.0318 17.2889 19.0891 20.0533 19.0909 23.3333C19.0909 26.6111 20.0345 29.3756 21.9218 31.6267C23.8091 33.8778 26.0473 35.0022 28.6364 35C29.5909 35 30.4891 34.8467 31.3309 34.54C32.1727 34.2333 33.0018 33.7756 33.8182 33.1667L39.4091 40.1667ZM28.6364 30C27.1364 30 25.8518 29.3467 24.7827 28.04C23.7136 26.7333 23.18 25.1644 23.1818 23.3333C23.1818 21.5 23.7164 19.93 24.7855 18.6233C25.8545 17.3167 27.1382 16.6644 28.6364 16.6667C30.0909 16.6667 31.3636 17.32 32.4545 18.6267C33.5455 19.9333 34.0909 21.5022 34.0909 23.3333C34.0909 25.1667 33.5564 26.7367 32.4873 28.0433C31.4182 29.35 30.1345 30.0022 28.6364 30ZM2.72728 60C1.95455 60 1.30637 59.68 0.782736 59.04C0.2591 58.4 -0.00180874 57.6089 9.43693e-06 56.6667C9.43693e-06 55.7222 0.261828 54.93 0.785464 54.29C1.3091 53.65 1.95637 53.3311 2.72728 53.3333H57.2727C58.0454 53.3333 58.6936 53.6533 59.2173 54.2933C59.7409 54.9333 60.0018 55.7244 60 56.6667C60 57.6111 59.7382 58.4033 59.2145 59.0433C58.6909 59.6833 58.0436 60.0022 57.2727 60H2.72728ZM8.18182 50C6.68183 50 5.39728 49.3467 4.32819 48.04C3.2591 46.7333 2.72546 45.1644 2.72728 43.3333V6.66667C2.72728 4.83334 3.26183 3.26334 4.33092 1.95667C5.40001 0.650005 6.68364 -0.00221656 8.18182 5.65931e-06H51.8182C53.3182 5.65931e-06 54.6027 0.653339 55.6718 1.96001C56.7409 3.26667 57.2745 4.83556 57.2727 6.66667V43.3333C57.2727 45.1667 56.7382 46.7367 55.6691 48.0433C54.6 49.35 53.3164 50.0022 51.8182 50H8.18182ZM8.18182 43.3333H51.8182V6.66667H8.18182V43.3333Z" fill="#6828BA"/>
</svg>
