<svg width="50" height="50" viewBox="0 0 50 50" fill="none" xmlns="http://www.w3.org/2000/svg">
<path d="M19.7917 17.7087L22.9167 20.8337L16.6667 27.0837L22.9167 33.3337L19.7917 36.4587L10.4167 27.0837L19.7917 17.7087ZM30.2084 36.4587L27.0834 33.3337L33.3334 27.0837L27.0834 20.8337L30.2084 17.7087L39.5834 27.0837L30.2084 36.4587ZM43.75 4.16699H6.25004C5.14497 4.16699 4.08516 4.60598 3.30376 5.38738C2.52236 6.16878 2.08337 7.22859 2.08337 8.33366V41.667C2.08337 42.7721 2.52236 43.8319 3.30376 44.6133C4.08516 45.3947 5.14497 45.8337 6.25004 45.8337H43.75C44.8551 45.8337 45.9149 45.3947 46.6963 44.6133C47.4777 43.8319 47.9167 42.7721 47.9167 41.667V8.33366C47.9167 7.22859 47.4777 6.16878 46.6963 5.38738C45.9149 4.60598 44.8551 4.16699 43.75 4.16699ZM43.75 41.667H6.25004V12.5003H43.75V41.667Z" fill="url(#paint0_linear_1870_68)"/>
<defs>
<linearGradient id="paint0_linear_1870_68" x1="24.598" y1="6.79857" x2="24.7176" y2="45.8345" gradientUnits="userSpaceOnUse">
<stop stop-color="#D4F79A"/>
<stop offset="0.5" stop-color="#A6F5A9"/>
<stop offset="1" stop-color="#7BF1B8"/>
</linearGradient>
</defs>
</svg>
