<svg width="50" height="45" viewBox="0 0 50 45" fill="none" xmlns="http://www.w3.org/2000/svg">
<path d="M25 45C24.2917 45 23.6975 44.76 23.2175 44.28C22.7375 43.8 22.4983 43.2067 22.5 42.5C22.5 41.7917 22.74 41.1975 23.22 40.7175C23.7 40.2375 24.2933 39.9983 25 40H42.5V22.25C42.5 19.8333 42.0417 17.5625 41.125 15.4375C40.2083 13.3125 38.9583 11.4583 37.375 9.875C35.7917 8.29167 33.9375 7.04167 31.8125 6.125C29.6875 5.20834 27.4167 4.75 25 4.75C22.5833 4.75 20.3125 5.20834 18.1875 6.125C16.0625 7.04167 14.2083 8.29167 12.625 9.875C11.0417 11.4583 9.79167 13.3125 8.875 15.4375C7.95834 17.5625 7.5 19.8333 7.5 22.25V35C7.5 35.7083 7.26084 36.3025 6.7825 36.7825C6.30417 37.2625 5.71 37.5017 5 37.5C3.625 37.5 2.4475 37.01 1.4675 36.03C0.487504 35.05 -0.00166242 33.8733 4.24448e-06 32.5V27.5C4.24448e-06 26.5417 0.229171 25.6983 0.687504 24.97C1.14584 24.2417 1.75 23.6475 2.5 23.1875L2.6875 19.875C3.0625 16.8333 3.9275 14.0833 5.2825 11.625C6.6375 9.16667 8.325 7.08334 10.345 5.375C12.365 3.66667 14.6358 2.34334 17.1575 1.405C19.6792 0.466671 22.2933 -0.00166223 25 4.43262e-06C27.75 4.43262e-06 30.3858 0.469171 32.9075 1.4075C35.4292 2.34584 37.6892 3.67917 39.6875 5.4075C41.6875 7.13584 43.365 9.21917 44.72 11.6575C46.075 14.0958 46.9392 16.8142 47.3125 19.8125L47.5 23.0625C48.25 23.4375 48.8542 23.99 49.3125 24.72C49.7708 25.45 50 26.2517 50 27.125V32.875C50 33.7917 49.7708 34.6042 49.3125 35.3125C48.8542 36.0208 48.25 36.5625 47.5 36.9375V40C47.5 41.375 47.01 42.5525 46.03 43.5325C45.05 44.5125 43.8733 45.0017 42.5 45H25ZM17.5 27.5C16.7917 27.5 16.1975 27.26 15.7175 26.78C15.2375 26.3 14.9983 25.7067 15 25C15 24.2917 15.24 23.6975 15.72 23.2175C16.2 22.7375 16.7933 22.4983 17.5 22.5C18.2083 22.5 18.8025 22.74 19.2825 23.22C19.7625 23.7 20.0017 24.2933 20 25C20 25.7083 19.76 26.3025 19.28 26.7825C18.8 27.2625 18.2067 27.5017 17.5 27.5ZM32.5 27.5C31.7917 27.5 31.1975 27.26 30.7175 26.78C30.2375 26.3 29.9983 25.7067 30 25C30 24.2917 30.24 23.6975 30.72 23.2175C31.2 22.7375 31.7933 22.4983 32.5 22.5C33.2083 22.5 33.8025 22.74 34.2825 23.22C34.7625 23.7 35.0017 24.2933 35 25C35 25.7083 34.76 26.3025 34.28 26.7825C33.8 27.2625 33.2067 27.5017 32.5 27.5ZM10.0625 23.625C9.89584 21.1667 10.24 18.9375 11.095 16.9375C11.95 14.9375 13.0958 13.2392 14.5325 11.8425C15.9692 10.4475 17.625 9.375 19.5 8.625C21.375 7.875 23.25 7.5 25.125 7.5C28.9167 7.5 32.1983 8.69834 34.97 11.095C37.7417 13.4917 39.4183 16.48 40 20.06C36.0833 20.02 32.5417 18.9683 29.375 16.905C26.2083 14.8417 23.8125 12.165 22.1875 8.875C21.5208 12.25 20.1142 15.24 17.9675 17.845C15.8208 20.45 13.1842 22.3767 10.0625 23.625Z" fill="#7BF1B8"/>
</svg>
