<svg width="60" height="60" viewBox="0 0 60 60" fill="none" xmlns="http://www.w3.org/2000/svg">
<g clip-path="url(#clip0_1868_109)">
<path d="M53.4375 60C52.5753 60.0026 51.7212 59.834 50.9246 59.5041C50.1281 59.1742 49.4048 58.6895 48.7969 58.0782L41.0569 50.3382C38.8605 50.8231 36.5727 50.6905 34.4471 49.9548C32.3215 49.2191 30.4412 47.9092 29.0144 46.1703C27.5877 44.4314 26.6704 42.3314 26.3642 40.103C26.0579 37.8746 26.3747 35.605 27.2794 33.5457L28.3819 31.0332L36.1744 38.8257C36.5312 39.1664 37.0057 39.3566 37.4991 39.3566C37.9925 39.3566 38.4669 39.1664 38.8238 38.8257C38.9982 38.6518 39.1366 38.4453 39.2311 38.2179C39.3256 37.9905 39.3743 37.7467 39.3745 37.5004C39.3746 37.2542 39.3263 37.0103 39.2321 36.7828C39.1379 36.5552 38.9998 36.3485 38.8257 36.1744L31.0332 28.38L33.5457 27.2775C35.6052 26.3734 37.8748 26.0571 40.1031 26.3637C42.3313 26.6703 44.4312 27.5879 46.1699 29.0146C47.9087 30.4414 49.2185 32.3218 49.9542 34.4473C50.69 36.5728 50.8228 38.8605 50.3382 41.0569L58.0781 48.7969C58.996 49.7147 59.6211 50.8841 59.8744 52.1571C60.1276 53.4302 59.9977 54.7498 59.5009 55.949C59.0042 57.1482 58.163 58.1731 57.0837 58.8942C56.0044 59.6153 54.7355 60.0001 53.4375 60ZM42.1313 46.1082L51.45 55.4269C51.9855 55.9381 52.6973 56.2234 53.4375 56.2234C54.1778 56.2234 54.8896 55.9381 55.425 55.4269C55.6865 55.166 55.894 54.8561 56.0356 54.5149C56.1772 54.1737 56.25 53.8079 56.25 53.4385C56.25 53.0691 56.1772 52.7033 56.0356 52.3621C55.894 52.0209 55.6865 51.7109 55.425 51.45L46.1082 42.1313L46.4606 41.0382C46.8725 39.7723 46.9787 38.4269 46.7706 37.1121C46.5625 35.7972 46.0459 34.5504 45.2633 33.4736C44.4806 32.3968 43.454 31.5207 42.2676 30.9169C41.0812 30.3132 39.7687 29.999 38.4375 30C38.28 30 38.1238 30.0044 37.9688 30.0132L41.4788 33.5232C42.5333 34.578 43.1257 36.0085 43.1257 37.5C43.1257 38.9916 42.5333 40.4221 41.4788 41.4769C40.4072 42.5001 38.9826 43.071 37.501 43.071C36.0194 43.071 34.5947 42.5001 33.5231 41.4769L30.0132 37.9669C30.0044 38.1232 30 38.28 30 38.4375C29.999 39.769 30.3132 41.0817 30.9171 42.2683C31.5209 43.4549 32.3972 44.4817 33.4742 45.2645C34.5511 46.0474 35.7982 46.5641 37.1132 46.7723C38.4282 46.9805 39.7739 46.8744 41.04 46.4625L42.1313 46.1082Z" fill="url(#paint0_linear_1868_109)"/>
<path d="M46.875 9.375H41.25V7.5C41.247 6.50635 40.851 5.55425 40.1484 4.85163C39.4458 4.14901 38.4936 3.75297 37.5 3.75H22.5C21.5064 3.75297 20.5542 4.14901 19.8516 4.85163C19.149 5.55425 18.753 6.50635 18.75 7.5V9.375H13.125C12.1314 9.37797 11.1792 9.77401 10.4766 10.4766C9.77401 11.1792 9.37797 12.1314 9.375 13.125V52.5C9.37797 53.4936 9.77401 54.4458 10.4766 55.1484C11.1792 55.851 12.1314 56.247 13.125 56.25H26.25V52.5H13.125V13.125H18.75V18.75H41.25V13.125H46.875V22.5H50.625V13.125C50.622 12.1314 50.226 11.1792 49.5234 10.4766C48.8208 9.77401 47.8686 9.37797 46.875 9.375ZM37.5 15H22.5V7.5H37.5V15Z" fill="url(#paint1_linear_1868_109)"/>
</g>
<defs>
<linearGradient id="paint0_linear_1868_109" x1="42.8296" y1="28.3816" x2="42.9361" y2="60.0007" gradientUnits="userSpaceOnUse">
<stop stop-color="#D4F79A"/>
<stop offset="0.5" stop-color="#A6F5A9"/>
<stop offset="1" stop-color="#7BF1B8"/>
</linearGradient>
<linearGradient id="paint1_linear_1868_109" x1="29.6382" y1="7.06579" x2="29.8492" y2="56.2507" gradientUnits="userSpaceOnUse">
<stop stop-color="#D4F79A"/>
<stop offset="0.5" stop-color="#A6F5A9"/>
<stop offset="1" stop-color="#7BF1B8"/>
</linearGradient>
<clipPath id="clip0_1868_109">
<rect width="60" height="60" fill="white"/>
</clipPath>
</defs>
</svg>
