<svg width="60" height="60" viewBox="0 0 60 60" fill="none" xmlns="http://www.w3.org/2000/svg">
<path d="M28.5714 31.8L35.7143 39.3C36.2381 39.85 36.5 40.55 36.5 41.4C36.5 42.25 36.2381 42.95 35.7143 43.5C35.1905 44.05 34.5238 44.325 33.7143 44.325C32.9048 44.325 32.2381 44.05 31.7143 43.5L23.7143 35.1C23.4286 34.8 23.2143 34.463 23.0714 34.089C22.9286 33.715 22.8571 33.327 22.8571 32.925V21C22.8571 20.15 23.1314 19.437 23.68 18.861C24.2286 18.285 24.9067 17.998 25.7143 18C26.5238 18 27.2029 18.288 27.7514 18.864C28.3 19.44 28.5733 20.152 28.5714 21V31.8ZM45.7143 15H40C39.1905 15 38.5114 14.713 37.9629 14.139C37.4143 13.565 37.1409 12.852 37.1429 12C37.1429 11.15 37.4171 10.437 37.9657 9.86101C38.5143 9.28501 39.1924 8.99801 40 9.00001H45.7143V3.00001C45.7143 2.15001 45.9886 1.43701 46.5371 0.86101C47.0857 0.28501 47.7638 -0.00198962 48.5714 1.03806e-05C49.3809 1.03806e-05 50.06 0.28801 50.6086 0.86401C51.1571 1.44001 51.4305 2.15201 51.4286 3.00001V9.00001H57.1428C57.9524 9.00001 58.6314 9.28801 59.18 9.86401C59.7286 10.44 60.0019 11.152 60 12C60 12.85 59.7257 13.563 59.1771 14.139C58.6286 14.715 57.9505 15.002 57.1428 15H51.4286V21C51.4286 21.85 51.1543 22.563 50.6057 23.139C50.0571 23.715 49.379 24.002 48.5714 24C47.7619 24 47.0829 23.712 46.5343 23.136C45.9857 22.56 45.7124 21.848 45.7143 21V15ZM25.7143 60C22.1429 60 18.7971 59.3 15.6771 57.9C12.5571 56.5 9.83143 54.575 7.5 52.125C5.16667 49.675 3.33333 46.812 2 43.536C0.666667 40.26 0 36.748 0 33C0 29.25 0.666667 25.737 2 22.461C3.33333 19.185 5.16667 16.323 7.5 13.875C9.83333 11.425 12.56 9.50001 15.68 8.10001C18.8 6.70001 22.1448 6.00001 25.7143 6.00001C26.2381 6.00001 26.7267 6.01301 27.18 6.03901C27.6333 6.06501 28.1209 6.12701 28.6429 6.22501C29.4524 6.22501 30.1314 6.51301 30.68 7.08901C31.2286 7.66501 31.5019 8.37701 31.5 9.22501C31.5 10.075 31.2257 10.788 30.6771 11.364C30.1286 11.94 29.4505 12.227 28.6429 12.225C28.119 12.225 27.6305 12.187 27.1771 12.111C26.7238 12.035 26.2362 11.998 25.7143 12C20.0952 12 15.3571 14.025 11.5 18.075C7.64286 22.125 5.71428 27.1 5.71428 33C5.71428 38.9 7.64286 43.875 11.5 47.925C15.3571 51.975 20.0952 54 25.7143 54C31.3333 54 36.0714 51.975 39.9286 47.925C43.7857 43.875 45.7143 38.9 45.7143 33C45.7143 32.15 45.9886 31.437 46.5371 30.861C47.0857 30.285 47.7638 29.998 48.5714 30C49.3809 30 50.06 30.288 50.6086 30.864C51.1571 31.44 51.4305 32.152 51.4286 33C51.4286 36.75 50.7619 40.263 49.4286 43.539C48.0952 46.815 46.2619 49.677 43.9286 52.125C41.5952 54.575 38.8686 56.5 35.7486 57.9C32.6286 59.3 29.2838 60 25.7143 60Z" fill="#6828BA"/>
</svg>
