<svg width="20" height="20" viewBox="0 0 20 20" fill="none" xmlns="http://www.w3.org/2000/svg">
<g clip-path="url(#clip0_1870_181)">
<path d="M15.3125 0H4.6875C2.09867 0 0 2.09867 0 4.6875V15.3125C0 17.9013 2.09867 20 4.6875 20H15.3125C17.9013 20 20 17.9013 20 15.3125V4.6875C20 2.09867 17.9013 0 15.3125 0Z" fill="black" fill-opacity="0.8"/>
<path d="M4.42283 10.066L4.4165 10.885H7.01963V18.2818H8.86104V10.885H11.4642V10.0818C11.4642 9.63739 11.4547 9.26598 11.442 9.25645C11.4324 9.2438 9.8483 9.23739 7.92768 9.24059L4.43244 9.25012L4.42283 10.066ZM16.1381 9.22684C16.646 9.35387 17.0334 9.57926 17.3889 9.94747C17.5731 10.1443 17.846 10.5031 17.8683 10.5888C17.8746 10.6142 17.0048 11.1983 16.4778 11.5253C16.4588 11.538 16.3825 11.4554 16.2968 11.3285C16.0397 10.9539 15.7699 10.7919 15.3571 10.7634C14.7508 10.7221 14.3603 11.0396 14.3635 11.5697C14.3635 11.7253 14.3857 11.8173 14.4492 11.9443C14.5825 12.2205 14.8302 12.3856 15.608 12.7221C17.0397 13.338 17.6524 13.7443 18.0334 14.3221C18.4588 14.9665 18.554 15.9951 18.2651 16.7602C17.9477 17.5919 17.1603 18.157 16.0524 18.3443C15.7096 18.4047 14.8968 18.3951 14.5286 18.3285C13.7254 18.1856 12.9635 17.7888 12.4937 17.2682C12.3096 17.065 11.9508 16.5348 11.9731 16.4967C11.9825 16.484 12.0651 16.4332 12.1571 16.3793C12.246 16.3285 12.5826 16.1348 12.9 15.9507L13.4746 15.6173L13.5953 15.7951C13.7635 16.0522 14.1317 16.4047 14.354 16.5221C14.9921 16.8586 15.8683 16.811 16.3 16.4237C16.4842 16.2554 16.5603 16.0808 16.5603 15.8237C16.5603 15.5919 16.5317 15.4904 16.4111 15.3157C16.2556 15.0936 15.9381 14.9062 15.0365 14.5157C14.0048 14.0713 13.5603 13.7951 13.154 13.357C12.9191 13.1031 12.6968 12.6967 12.6048 12.357C12.5286 12.0745 12.5096 11.3665 12.5699 11.0808C12.7825 10.084 13.5349 9.3888 14.6206 9.18239C14.9731 9.11575 15.7921 9.14114 16.1381 9.22684Z" fill="white"/>
</g>
<defs>
<clipPath id="clip0_1870_181">
<rect width="20" height="20" fill="white"/>
</clipPath>
</defs>
</svg>
