<svg width="50" height="50" viewBox="0 0 50 50" fill="none" xmlns="http://www.w3.org/2000/svg">
<g clip-path="url(#clip0_1955_9)">
<path d="M39.4782 23.9153C39.4782 21.2653 38.5251 19.4309 37.7095 18.0028L37.4595 17.5965C36.4689 16.0028 35.6032 14.6028 35.6032 12.9715C35.6032 11.0028 37.097 9.16525 39.2032 9.16525C39.2657 9.16525 39.3251 9.1715 39.3845 9.17463L39.4814 9.184C35.5319 5.55631 30.3628 3.54623 25.0001 3.55275C21.446 3.55092 17.9472 4.43344 14.8191 6.12078C11.691 7.80812 9.03188 10.2473 7.08137 13.2184C7.58137 13.234 8.05949 13.2465 8.46262 13.2465C10.7032 13.2465 14.1751 12.9746 14.1751 12.9746C15.3314 12.9059 15.4689 14.6028 14.3126 14.7403C14.3126 14.7403 13.1532 14.8778 11.8595 14.9434L19.672 38.1746L24.3595 24.0934L21.0157 14.9403C19.8626 14.8715 18.7689 14.7371 18.7689 14.7371C17.6126 14.6684 17.7501 12.8996 18.9032 12.9684C18.9032 12.9684 22.447 13.2403 24.5532 13.2403C26.797 13.2403 30.272 12.9684 30.272 12.9684C31.4282 12.8996 31.5626 14.5996 30.4064 14.7371C30.4064 14.7371 29.2439 14.8715 27.9532 14.9403L35.7032 37.9934L37.8407 30.8465L38.0095 30.3059C38.8532 27.6184 39.4751 25.634 39.4751 23.9121L39.4782 23.9153ZM3.55324 24.9996C3.55303 29.027 4.68661 32.973 6.82427 36.3862C8.96193 39.7993 12.0173 42.5418 15.6407 44.2996L5.40637 16.2684C4.18084 19.0159 3.54935 21.9912 3.55324 24.9996Z" fill="black"/>
<path d="M18.9407 45.5715L25.3782 26.8746L31.9688 44.9371C32.0125 45.0402 32.0626 45.1371 32.1219 45.2309C27.8733 46.7276 23.2609 46.8468 18.9407 45.5715ZM43.8157 14.709C43.9094 15.3934 43.9625 16.1246 43.9625 16.9152C43.9625 19.0902 43.5563 21.5371 42.3313 24.5965L35.7813 43.534C40.6148 40.7257 44.1601 36.1405 45.6616 30.7559C47.163 25.3713 46.5018 19.6131 43.8188 14.709H43.8157Z" fill="black"/>
<path fill-rule="evenodd" clip-rule="evenodd" d="M0 25C0 11.2156 11.2156 0 25 0C38.7812 0 50 11.2156 50 25C50 38.7844 38.7812 50 25 50C11.2156 50 0 38.7844 0 25ZM1.14688 25C1.14688 38.1531 11.8469 48.8531 25 48.8531C38.15 48.8531 48.85 38.1531 48.85 25C48.85 11.8437 38.15 1.14688 25 1.14688C11.8437 1.14688 1.14688 11.8437 1.14688 25Z" fill="black"/>
</g>
<defs>
<clipPath id="clip0_1955_9">
<rect width="50" height="50" fill="white"/>
</clipPath>
</defs>
</svg>
